<?xml version="1.0" encoding="utf-8"?>
<!-- Generator: Adobe Illustrator 18.0.0, SVG Export Plug-In . SVG Version: 6.00 Build 0)  -->
<!DOCTYPE svg PUBLIC "-//W3C//DTD SVG 1.1//EN" "http://www.w3.org/Graphics/SVG/1.1/DTD/svg11.dtd">
<svg version="1.1" id="Layer_1" xmlns="http://www.w3.org/2000/svg" xmlns:xlink="http://www.w3.org/1999/xlink" x="0px" y="0px"
	 viewBox="0 0 325 21.9" enable-background="new 0 0 325 21.9" xml:space="preserve">
<path fill="#4b2e83" d="M314.4,15.1V3l8.4,13.5h0.8V1.7l1.4-1.4h-4.2l1.4,1.4V12l-7.3-11.6h-3.3l1.4,1.4v13.3l-1.4,1.4h4.2
	L314.4,15.1L314.4,15.1z M302,15.6c-3.2,0-4.3-3.9-4.3-7.2c0-3.3,1.1-7.2,4.3-7.2c3.3,0,4.4,3.9,4.4,7.2
	C306.3,11.7,305.2,15.6,302,15.6 M295.5,8.4c0,4.1,2.3,8.4,6.4,8.4c4.1,0,6.5-4.3,6.5-8.4c0-4.1-2.3-8.4-6.5-8.4
	C297.8,0,295.5,4.3,295.5,8.4 M288.2,15.2V1.6h3.1l1.7,1.7V0.4h-11.3v2.9l1.7-1.7h3v13.6l-1.3,1.3h4.3L288.2,15.2L288.2,15.2z
	 M276.3,9.1v5.2c-0.4,0.4-1.1,1.1-2.6,1.1c-3.6,0-5.4-3.6-5.4-7.1c0-3.5,2.3-7.1,5.4-7.1c0.8,0,1.4,0.2,2,0.8l1.8,1.7V1.1
	c-1-0.5-1.9-0.9-3.7-0.9c-4.4,0-7.5,3.9-7.5,8.3c0,4.3,3.1,8.3,7.5,8.3c2.5,0,3.6-0.6,4.4-1.2V9.1l1.3-1.3H275L276.3,9.1L276.3,9.1z
	 M252.4,15.1V3l8.5,13.5l0.7,0V1.7l1.4-1.4h-4.2l1.4,1.4V12l-7.3-11.6h-3.3l1.4,1.4v13.3l-1.4,1.4h4.2L252.4,15.1L252.4,15.1z
	 M240.8,0.3l1.3,1.3v13.5l-1.3,1.3h4.3l-1.3-1.3V1.6l1.3-1.3H240.8L240.8,0.3z M226.5,8.4h6.8v6.8l-1.3,1.3h4.3l-1.3-1.3V1.6
	l1.3-1.3H232l1.3,1.3v5.5h-6.8V1.6l1.3-1.3h-4.3l1.3,1.3v13.5l-1.3,1.3h4.3l-1.3-1.3V8.4L226.5,8.4z M219.3,12
	c0-1.6-0.7-2.6-1.5-3.1l-3.3-2.4c-1.2-0.8-1.8-1.9-1.8-2.8c0-1.7,1.4-2.3,2.3-2.3c0.5,0,0.8,0.2,1,0.2l1.4,1.5l1.5-2.2l-3.2-0.6
	c-0.2-0.1-0.4-0.1-0.8-0.1c-2.8,0-4.1,2.4-4.1,4c0,1.2,0.6,2.6,2.1,3.7l3.3,2.4c0.9,0.6,1.1,1.6,1.1,2.4c0,1.4-0.8,2.9-2.7,2.9
	c-0.4,0-0.8-0.1-1.1-0.2l-1.5-1.8l-1.4,2.5l3.1,0.6c0,0,0.5,0.1,1,0.1C216.7,16.7,219.2,15.1,219.3,12 M201.2,4l2.2,6.7h-4.5
	L201.2,4L201.2,4z M197.3,15.2l1.2-3.4h5.3l1.1,3.4l-1.3,1.3h4.6l-1.3-1.3l-5-14.8h-0.8L196,15.2l-1.3,1.3h3.9L197.3,15.2
	L197.3,15.2z M180.2,16.5l3.7-11.7l3.6,11.7h0.8l4.7-14.8l1.3-1.3h-3.9l1.3,1.3l-3.4,11.1l-3.3-11.1l1.3-1.3h-4.6l1.3,1.3l0.3,1.1
	l-3.1,10.1l-3.3-11.1l1.3-1.3h-4.6l1.3,1.3l4.5,14.8L180.2,16.5L180.2,16.5L180.2,16.5z M156.3,6.8l-0.6,0.6l0.1,0.2h1.9
	c-0.3,2-0.6,3.8-1,6.7c-0.6,4.2-1.1,5.7-1.6,6.1c-0.1,0.1-0.4,0.2-0.6,0.2c-0.3,0-0.7-0.2-1-0.3c-0.3-0.1-0.5,0-0.6,0.2
	c-0.2,0.2-0.4,0.5-0.4,0.8c0,0.5,0.6,0.7,1,0.7c0.4,0,1.5-0.4,2.5-1.6c0.8-1,1.8-3.2,2.7-8.3c0.2-1,0.3-1.9,0.7-4.4l2.3-0.2l0.5-0.6
	h-2.7c0.7-4.2,1.2-5.5,2.2-5.5c0.7,0,1.2,0.3,1.7,0.8c0.2,0.2,0.4,0.2,0.6,0c0.2-0.2,0.5-0.5,0.5-0.8c0-0.5-0.6-1-1.4-1
	c-1.3,0-2.7,0.8-3.6,1.9c-0.9,1.1-1.5,2.8-1.8,4.6L156.3,6.8L156.3,6.8L156.3,6.8z M146.1,12.8c0-3.4,1.7-5.2,2.4-5.5
	c0.2-0.1,0.5-0.2,0.7-0.2c1.1,0,1.8,0.9,1.8,2.6c0,3-1.5,5.6-2.5,5.9c-0.2,0.1-0.5,0.2-0.7,0.2C146.6,15.8,146.1,14.5,146.1,12.8
	 M150,6.3c-0.6,0-1.5,0.3-2.4,0.8c-1.6,0.9-3.3,3-3.3,6.2c0,1.6,0.7,3.4,2.9,3.4c1,0,2.4-0.7,3.4-1.5c1.5-1.4,2.4-3.7,2.4-5.7
	C152.9,7.5,151.9,6.3,150,6.3 M123.7,1.7l4.1,7.3v6.2l-1.3,1.3h4.3l-1.3-1.3V9l4.1-7.3l1.3-1.3h-4l1.3,1.3l-3.4,6l-3.2-6l1.3-1.3
	h-4.6L123.7,1.7C123.7,1.7,123.7,1.7,123.7,1.7z M115.2,15.2V1.6h3.1l1.7,1.7V0.4h-11.3v2.9l1.7-1.7h3v13.6l-1.3,1.3h4.3L115.2,15.2
	L115.2,15.2z M100.6,0.4l1.3,1.3v13.5l-1.3,1.3h4.3l-1.3-1.3V1.7l1.3-1.3H100.6L100.6,0.4z M95.9,12c0-1.6-0.7-2.6-1.5-3.1l-3.3-2.4
	c-1.2-0.8-1.8-1.9-1.8-2.8c0-1.7,1.4-2.3,2.3-2.3c0.5,0,0.8,0.2,1,0.2l1.4,1.5L95.6,1l-3.2-0.6c-0.2-0.1-0.4-0.1-0.8-0.1
	c-2.8,0-4.1,2.4-4.1,4c0,1.2,0.6,2.6,2.1,3.7l3.3,2.4c0.9,0.6,1.1,1.6,1.1,2.4c0,1.4-0.8,2.9-2.7,2.9c-0.4,0-0.8-0.1-1.1-0.2
	l-1.5-1.8L87.4,16l3.1,0.6c0,0,0.5,0.1,1,0.1C93.3,16.7,95.9,15.1,95.9,12 M75.2,1.6h2c1.7,0,3.1,1.5,3.1,3.2c0,1.7-1.4,3-3.1,3h-2
	V1.6L75.2,1.6z M75.2,15.2V9h2.4l3.9,7.5h2.7l-1.3-1.3l-3.6-6.6c1.8-0.5,3-2.2,3-3.8c0-2.7-2.5-4.5-5.2-4.5h-5l1.3,1.3v13.5
	l-1.3,1.3h4.3L75.2,15.2L75.2,15.2z M67.9,16.5v-2.9l-1.7,1.7h-4.9V8.5H65l1.3,1.3V6L65,7.3h-3.6V1.6h4.9l1.7,1.7V0.4h-9.6l1.3,1.3
	v13.6l-1.3,1.3L67.9,16.5C67.9,16.5,67.9,16.5,67.9,16.5z M47,0.4h-4.6l1.3,1.3l4.5,14.8h0.8l4.7-14.8l1.3-1.3h-3.9l1.3,1.3
	l-3.4,11.1L45.8,1.6L47,0.4L47,0.4z M34.5,0.4l1.3,1.3v13.5l-1.3,1.3h4.3l-1.3-1.3V1.7l1.3-1.3H34.5z M19.5,15.1V3l8.6,13.5h0.6V1.8
	l1.4-1.4h-4.2l1.4,1.4V12L20.1,0.4h-3.3l1.4,1.4v13.3l-1.4,1.4h4.2L19.5,15.1L19.5,15.1z M1.4,12.2c0,2.6,2.2,4.7,5,4.7
	c2.6,0,5.2-1.9,5.2-4.7V1.8L13,0.4H8.8l1.4,1.4v10.4c0,1.9-1.5,3.3-3.3,3.3c-1.9,0-3.6-1.4-3.6-3.3V1.8l1.4-1.4H0l1.4,1.4L1.4,12.2
	L1.4,12.2z"/>
</svg>
